HIERARCHY
ROOT ui
{
	 OFFSET 0 0 0
	 CHANNELS 3 XPosition YPosition Z Position
	 EndSite
	 {
	 OFFSET 0 -1 0
	 }
}
ROOT li
{
	 OFFSET 0 0 0
	 CHANNELS 3 XPosition YPosition Z Position
	 EndSite
	 {
	 OFFSET 0 -1 0
	 }
}
ROOT ul
{
	 OFFSET 0 0 0
	 CHANNELS 3 XPosition YPosition Z Position
	 EndSite
	 {
	 OFFSET 0 -1 0
	 }
}
ROOT ll
{
	 OFFSET 0 0 0
	 CHANNELS 3 XPosition YPosition Z Position
	 EndSite
	 {
	 OFFSET 0 -1 0
	 }
}
ROOT tt
{
	 OFFSET 0 0 0
	 CHANNELS 3 XPosition YPosition Z Position
	 EndSite
	 {
	 OFFSET 0 -1 0
	 }
}
ROOT tb
{
	 OFFSET 0 0 0
	 CHANNELS 3 XPosition YPosition Z Position
	 EndSite
	 {
	 OFFSET 0 -1 0
	 }
}
ROOT td
{
	 OFFSET 0 0 0
	 CHANNELS 3 XPosition YPosition Z Position
	 EndSite
	 {
	 OFFSET 0 -1 0
	 }
}
ROOT v
{
	 OFFSET 0 0 0
	 CHANNELS 3 XPosition YPosition Z Position
	 EndSite
	 {
	 OFFSET 0 -1 0
	 }
}
ROOT bn
{
	 OFFSET 0 0 0
	 CHANNELS 3 XPosition YPosition Z Position
	 EndSite
	 {
	 OFFSET 0 -1 0
	 }
}
MOTION
Frames: 24
Frame Time: 0.002
0.019542329788208006	0.005100654125213623	0		0.5286394653320312	-2.48940625	0		-0.990831298828125	-0.09937464141845703	0		-0.38267901611328126	-2.993140869140625	0		2.157961181640625	-1.4255345458984374	0		3.615542236328125	-0.5815494995117187	0		4.77620654296875	-0.3739305114746094	0		5.93337646484375	0.43877841186523436	0		-0.1942267608642578	5.91020654296875	0		
0.00789461612701416	-0.004159537792205811	0		0.4950286560058594	-2.492401611328125	0		-0.9994436645507813	-0.10565639495849609	0		-0.37158688354492186	-3.019678955078125	0		2.15029052734375	-1.4348780517578126	0		3.591712158203125	-0.6047162475585938	0		4.764689453125	-0.3722665100097656	0		5.9236611328125	0.423400634765625	0		-0.21076861572265626	5.90201171875	0		
0.0073919868469238285	-0.003568774938583374	0		0.517395263671875	-2.4991044921875	0		-0.9878121337890625	-0.09419875335693359	0		-0.38937530517578123	-3.037868896484375	0		2.149763916015625	-1.4343233642578126	0		3.5943857421875	-0.589224365234375	0		4.750380859375	-0.35558303833007815	0		5.92316552734375	0.4238916931152344	0		-0.21018423461914063	5.90159375	0		
-0.01908587646484375	-0.002670428991317749	0		0.4899096374511719	-2.495203125	0		-0.9942308959960937	-0.0885318603515625	0		-0.2722929382324219	-3.068754638671875	0		2.14620849609375	-1.43775	0		3.602857177734375	-0.59182666015625	0		4.7557822265625	-0.36416845703125	0		5.9275810546875	0.4152974853515625	0		-0.2446292419433594	5.89659619140625	0		
0.006455432891845703	-0.0024396638870239256	0		0.5450384521484375	-2.524354248046875	0		-0.9965892944335938	-0.07993350219726562	0		-0.40186151123046876	-3.0715849609375	0		2.148773681640625	-1.4332747802734376	0		3.581627685546875	-0.5720814819335938	0		4.76346728515625	-0.35180682373046873	0		5.93123193359375	0.42368655395507815	0		-0.2298477325439453	5.9069677734375	0		
-0.015937323570251464	0.001366631031036377	0		0.5158817138671875	-2.497473388671875	0		-0.9929856567382812	-0.07643142700195313	0		-0.2816784362792969	-3.097554931640625	0		2.148312255859375	-1.432787109375	0		3.58510888671875	-0.5776728515625	0		4.7630283203125	-0.3513730773925781	0		5.926708984375	0.41614691162109374	0		-0.19608578491210937	5.9130791015625	0		
0.005619125843048096	-0.0014019490480422973	0		0.5400464477539062	-2.527288818359375	0		-0.9893418579101563	-0.07195433807373047	0		-0.28344940185546874	-3.1210283203125	0		2.144827392578125	-1.4362890625	0		3.58199267578125	-0.5532078247070312	0		4.75470458984375	-0.34386932373046875	0		5.92631396484375	0.416526123046875	0		-0.177427490234375	5.90835205078125	0		
0.005246239185333252	-9.23911988735199E-4	0		0.5099087524414062	-2.5034482421875	0		-0.98971630859375	-0.07145440673828125	0		-0.30491436767578123	-3.122280517578125	0		2.142385498046875	-1.4388328857421875	0		3.56638330078125	-0.5706189575195313	0		4.75432421875	-0.3434957580566406	0		5.9259501953125	0.4168739318847656	0		-0.21173039245605468	5.9042607421875	0		
0.0018586690425872803	-0.00443815803527832	0		0.5470849609375	-2.537486328125	0		-0.98601806640625	-0.06803480529785157	0		-0.29849835205078123	-3.13591259765625	0		2.10809375	-1.4320064697265624	0		3.55829736328125	-0.5491522827148437	0		4.73915625	-0.3289672546386719	0		5.93050830078125	0.4081267395019531	0		-0.21096066284179688	5.902701171875	0		
0.013596073150634765	-0.00117365300655365	0		0.559676513671875	-2.541246337890625	0		-0.9882055053710938	-0.05857210540771484	0		-0.29304574584960935	-3.149564208984375	0		2.112849365234375	-1.4247021484375	0		3.572845947265625	-0.5600054321289063	0		4.72685009765625	-0.3285084228515625	0		5.939205078125	0.4072942504882813	0		-0.22907371520996095	5.90734765625	0		
0.013336284637451172	-7.91483998298645E-4	0		0.5425992431640625	-2.521663818359375	0		-0.9863154907226562	-0.046193084716796874	0		-0.30628857421875	-3.14201171875	0		2.110733642578125	-1.4103441162109376	0		3.551192626953125	-0.5104316101074219	0		4.7288603515625	-0.3062615051269531	0		5.9381689453125	0.424551513671875	0		-0.19611213684082032	5.91431884765625	0		
0.004128291130065918	6.701949834823608E-4	0		0.57209033203125	-2.539705322265625	0		-0.9865379028320312	-0.04582206344604492	0		-0.25282623291015627	-3.1613369140625	0		2.086418701171875	-1.4147406005859375	0		3.515861328125	-0.5177219848632812	0		4.71867041015625	-0.3028955078125	0		5.92975634765625	0.4088660583496094	0		-0.21133554077148436	5.9038623046875	0		
-0.01711937713623047	-0.003750025987625122	0		0.5458867797851562	-2.536075927734375	0		-1.0016478881835937	-0.039296649932861326	0		-0.32206573486328127	-3.15914453125	0		2.090554443359375	-1.3865269775390625	0		3.507917236328125	-0.49738818359375	0		4.71056689453125	-0.29558792114257815	0		5.920580078125	0.4091594543457031	0		-0.17731480407714845	5.90975	0		
0.0037876980304718017	0.001262634038925171	0		0.562750732421875	-2.530025146484375	0		-0.997765625	-0.03604655838012695	0		-0.29338128662109375	-3.166225341796875	0		2.052397705078125	-1.38381298828125	0		3.53573681640625	-0.49854183959960935	0		4.7034951171875	-0.28832525634765627	0		5.91732080078125	0.40034588623046874	0		-0.21141172790527343	5.90446435546875	0		
-0.022335517883300782	0.0018364319801330567	0		0.5205615844726562	-2.530260009765625	0		-0.9938412475585937	-0.03183236694335938	0		-0.3146366577148437	-3.170708251953125	0		2.05529296875	-1.3796517333984375	0		3.517059326171875	-0.46213592529296876	0		4.6895673828125	-0.2720063781738281	0		5.925203125	0.40036056518554686	0		-0.23034478759765625	5.90995361328125	0		
0.008501811027526856	-0.0033482251167297364	0		0.5753696899414062	-2.533761474609375	0		-0.995836669921875	-0.023578201293945313	0		-0.2648287658691406	-3.173128662109375	0		2.049486083984375	-1.35441162109375	0		3.49792919921875	-0.46375872802734375	0		4.68946533203125	-0.2718953552246094	0		5.92121728515625	0.40849609375	0		-0.1962447967529297	5.91573388671875	0		
0.003499002933502197	0.0018883850574493409	0		0.5393954467773437	-2.522141845703125	0		-1.0018397827148438	-0.01830887222290039	0		-0.280906494140625	-3.16874658203125	0		2.0614677734375	-1.3484322509765625	0		3.51625927734375	-0.43188665771484375	0		4.69167333984375	-0.24984242248535157	0		5.92505615234375	0.4005014953613281	0		-0.1772591552734375	5.910669921875	0		
0.003463341951370239	0.0020265939235687255	0		0.56222119140625	-2.529306396484375	0		-1.0078115844726563	-0.013075652122497559	0		-0.284052490234375	-3.172564453125	0		2.0326513671875	-1.32896435546875	0		3.468333984375	-0.4222029418945312	0		4.683939453125	-0.22569219970703125	0		5.91702880859375	0.4006304931640625	0		-0.21223197937011717	5.90725830078125	0		
-0.01760244941711426	-0.0026019110679626465	0		0.5481614379882812	-2.530034423828125	0		-1.0087131958007813	-0.004942890167236328	0		-0.27424050903320313	-3.182583251953125	0		2.0277652587890627	-1.317834228515625	0		3.4664892578125	-0.4091365051269531	0		4.66502294921875	-0.21842953491210937	0		5.9170322265625	0.4006293640136719	0		-0.19799241638183593	5.91818505859375	0		
0.008424907684326173	-0.002866749048233032	0		0.552200439453125	-2.526027587890625	0		-0.9897108764648438	-0.00710184383392334	0		-0.2722503662109375	-3.181537109375	0		2.025131591796875	-1.2897637939453126	0		3.481600341796875	-0.40231817626953126	0		4.64922900390625	-0.20423489379882812	0		5.9211572265625	0.40754833984375	0		-0.1958919219970703	5.91623046875	0		
0.015578439712524414	0.004074809074401856	0		0.55629052734375	-2.5210556640625	0		-0.9924413452148437	0.008982072830200196	0		-0.20931581115722656	-3.188307373046875	0		2.017458984375	-1.267661865234375	0		3.4563779296875	-0.346010498046875	0		4.65948193359375	-0.18940240478515624	0		5.91302392578125	0.39159466552734373	0		-0.1957381591796875	5.91626513671875	0		
0.00858979606628418	-0.0028385019302368166	0		0.5693677978515626	-2.5202333984375	0		-1.0023271484375	0.010120530128479004	0		-0.2901503601074219	-3.179270263671875	0		2.004722412109375	-1.2535277099609374	0		3.430322021484375	-0.3577275390625	0		4.64759326171875	-0.188316650390625	0		5.90413037109375	0.3916246643066406	0		-0.17858274841308594	5.914046875	0		
0.003789331912994385	0.0021866490840911864	0		0.51483447265625	-2.49157568359375	0		-1.0021920166015625	0.010094829559326172	0		-0.24007283020019532	-3.180946533203125	0		1.9950732421875	-1.2354649658203125	0		3.435862548828125	-0.3258765563964844	0		4.64103466796875	-0.16432655334472657	0		5.90816748046875	0.38346023559570314	0		-0.22757359313964845	5.898640625	0		
0.0058523941040039065	-0.005911775112152099	0		0.5149710693359375	-2.4916552734375	0		-0.9979749145507812	0.013981587409973144	0		-0.30690032958984376	-3.17715673828125	0		1.946665283203125	-1.200935302734375	0		3.434178955078125	-0.3139656982421875	0		4.6253798828125	-0.15025027465820312	0		5.90444091796875	0.3913679504394531	0		-0.21221092224121094	5.90837646484375	0		
